<svg data-v-0dd9719b="" version="1.0" xmlns="http://www.w3.org/2000/svg" xmlns:xlink="http://www.w3.org/1999/xlink" width="100%" height="100%" viewBox="0 0 340.000000 250.000000" preserveAspectRatio="xMidYMid meet" color-interpolation-filters="sRGB" style="margin: auto;"> <rect data-v-0dd9719b="" x="0" y="0" width="100%" height="100%" fill="#ffffff" fill-opacity="1" class="background"></rect> <rect data-v-0dd9719b="" x="0" y="0" width="100%" height="100%" fill="url(#watermark)" fill-opacity="1" class="watermarklayer"></rect> <g data-v-0dd9719b="" fill="#2b2b2b" class="icon-text-wrapper icon-svg-group iconsvg" transform="translate(54.724998474121094,92.26784896850586)"><g class="iconsvg-imagesvg" transform="translate(0,0)"><g><rect fill="#2b2b2b" fill-opacity="0" stroke-width="2" x="0" y="0" width="59.99999999999963" height="65.46430558737808" class="image-rect"></rect> <svg x="0" y="0" width="59.99999999999963" height="65.46430558737808" filtersec="colorsb834554634" class="image-svg-svg primary" style="overflow: visible;"><svg xmlns="http://www.w3.org/2000/svg" viewBox="0 0.00037716084625571966 252.15200805664062 275.1169128417969"><g><g><path d="M55.31 105c61.62 14.49 123.56 4.79 139.05 40a229.17 229.17 0 0 1 52.9 14.48 51.7 51.7 0 0 0-21-66.75L77.53 6.91A51.66 51.66 0 0 0 46.75.24C13.07 19.73 29.94 56.83 55.31 105z" fill="#f74dd2"></path><path d="M55.31 105C29.94 56.83 13.07 19.73 46.75.24A51.72 51.72 0 0 0 0 51.71v21.93C11.08 90.43 31.64 99.47 55.31 105zM194.36 145c10.49 23.82-11 53.19-30.49 73.38l62.47-36.1a51.68 51.68 0 0 0 20.92-22.8 229.17 229.17 0 0 0-52.9-14.48z" fill="#ffde49"></path><path d="M194.36 145c-40.78-6.07-79.75-.78-113.69 9 17 34.93 37.81 79.58 1 111.82l82.18-47.49c19.53-20.15 41-49.52 30.51-73.33z" fill="#2b2b2b"></path><path d="M80.67 154A371.3 371.3 0 0 0 0 188.64v34.81a51.77 51.77 0 0 0 77.64 44.74l4-2.33c35.98-31.49 17.13-74.58-.97-111.86z" fill="#4fd9fe"></path><path d="M55.31 105C31.64 99.47 11.08 90.43 0 73.64v115A371.3 371.3 0 0 1 80.67 154c-8.42-17.28-17.32-33.68-25.36-49z" fill="#2b2b2b"></path></g></g></svg></svg> <!----></g></g> <g transform="translate(67,5.9409027099609375)"><g data-gra="path-name" fill-rule="" class="tp-name iconsvg-namesvg" transform="translate(0,0)"><g transform="scale(1)"><g><path d="M33.36-26.73L38.04-26.73 38.04-1.1Q38.04 2.85 34.09 2.85L34.09 2.85 4.5 2.85 4.5-26.73 8.76-26.73 8.76 0.43 19.13 0.43 19.13-33.32 23.38-33.32 23.38 0.43 31.66 0.43Q33.36 0.43 33.36-1.28L33.36-1.28 33.36-26.73ZM44.92-31.66L82.24-31.66 82.24-29.54Q82.24-29.28 82.05-29.09 81.86-28.9 81.6-28.9L81.6-28.9 70.68-28.9 70.68-22.78 80.37-22.78 80.37-1.1Q80.37 3.36 75.91 3.36L75.91 3.36 46.84 3.36 46.84-22.78 56.48-22.78 56.48-28.9 44.92-28.9 44.92-31.66ZM66-22.78L66-28.9 61.16-28.9 61.16-22.78 66-22.78ZM74.2 0.6Q75.69 0.6 75.69-0.89L75.69-0.89 75.69-5.31 69.95-5.31Q66-5.31 66-9.27L66-9.27 66-20.02 61.16-20.02 61.16-18.15Q61.16-13.64 59.63-10.48 58.1-7.31 56.08-5.63 54.06-3.95 52.4-3.4L52.4-3.4 52.4-6.16Q56.48-9.31 56.48-19.3L56.48-19.3 56.48-20.02 51.51-20.02 51.51 0.6 74.2 0.6ZM75.69-20.02L70.68-20.02 70.68-9.44Q70.68-7.74 72.38-7.74L72.38-7.74 75.69-7.74 75.69-20.02ZM122.66-5.36L125.84-5.36 124.57-1.32Q123.89 0.81 123.21 2 122.53 3.19 121.44 3.76 120.36 4.33 118.53 4.33L118.53 4.33Q115.73 4.33 113.69 2.27 111.65 0.21 109.91-4.33L109.91-4.33Q108.89-7.01 107.91-10.41L107.91-10.41 94.78-10.41 94.78-0.51Q97.41-1.4 100.79-2.87 104.17-4.33 106.04-5.57L106.04-5.57 106.04-2.17Q104.13-0.34 95.67 3.36L95.67 3.36 94.82 3.74 94.78 3.66 94.78 3.74 90.1 3.74 90.1-32 122.1-32 122.1-24.01Q122.1-19.55 117.64-19.55L117.64-19.55 110.8-19.55 111.05-17.94 111.9-13.18 125.21-13.18 125.21-11.05Q125.21-10.79 125.01-10.6 124.82-10.41 124.57-10.41L124.57-10.41 112.5-10.41Q113.35-6.93 114.45-4.17L114.45-4.17Q115.26-2.21 116.39-0.64 117.51 0.94 118.75 0.94L118.75 0.94Q119.72 0.94 120.19 0.17 120.66-0.6 121.21-2.38L121.21-2.38Q121.64-3.78 122.02-4.72L122.02-4.72Q122.27-5.36 122.66-5.36L122.66-5.36ZM117.64-29.24L94.78-29.24 94.78-22.31 116.15-22.31Q117.64-22.31 117.64-23.8L117.64-23.8 117.64-29.24ZM94.78-13.18L107.23-13.18Q106.67-15.51 106-19.55L106-19.55 94.78-19.55 94.78-13.18ZM140.42-20.49L137.7-20.49 137.7 3.78Q137.7 4.04 137.51 4.23 137.32 4.42 137.06 4.42L137.06 4.42 133.03 4.42 133.03-20.49 129.46-20.49 129.46-23.42 133.03-23.42 133.03-34.21 137.7-34.21 137.7-23.42 141.06-23.42 141.06-21.12Q141.06-20.87 140.87-20.68 140.68-20.49 140.42-20.49L140.42-20.49ZM151.43-25.16L151.43-27.24 140.55-27.24 140.55-30.01 151.43-30.01 151.43-34.21 156.1-34.21 156.1-30.01 160.22-30.01Q158.78-32.09 156.91-34.21L156.91-34.21 162.01-34.21Q163.46-32.3 164.56-30.01L164.56-30.01 167.45-30.01 167.45-27.88Q167.45-27.63 167.26-27.43 167.07-27.24 166.81-27.24L166.81-27.24 165.88-27.24 165.88-27.2 161.97-27.2Q161.97-27.2 161.95-27.22 161.93-27.24 161.93-27.24L161.93-27.24 156.1-27.24 156.1-25.16 165.79-25.16 165.79-10.07Q165.79-9.82 165.6-9.63 165.41-9.44 165.16-9.44L165.16-9.44 161.12-9.44 161.12-12.16 156.1-12.16 156.1-9.9Q156.1-9.65 155.91-9.46 155.72-9.27 155.47-9.27L155.47-9.27 151.43-9.27 151.43-12.16 146.41-12.16 146.41-10.07Q146.41-9.82 146.22-9.63 146.03-9.44 145.78-9.44L145.78-9.44 141.74-9.44 141.74-25.16 151.43-25.16ZM151.43-22.4L146.41-22.4 146.41-20.06 151.43-20.06 151.43-22.4ZM161.12-22.4L156.1-22.4 156.1-20.06 161.12-20.06 161.12-22.4ZM146.41-14.92L151.43-14.92 151.43-17.3 146.41-17.3 146.41-14.92ZM156.1-14.92L161.12-14.92 161.12-17.3 156.1-17.3 156.1-14.92ZM162.78-7.69L168.05-7.69 168.05-5.57Q168.05-5.31 167.85-5.12 167.66-4.93 167.41-4.93L167.41-4.93 162.78-4.93 162.78-0.09Q162.78 4.38 158.31 4.38L158.31 4.38 151.68 4.38 151.68 1.62 156.61 1.62Q158.1 1.62 158.1 0.13L158.1 0.13 158.1-4.93 139.23-4.93 139.23-7.69 158.1-7.69 158.1-9.05 162.78-9.05 162.78-7.69ZM141.87-4.42L147.39-4.42Q148.58-3.06 149.13-2.21 149.69-1.36 150.28-0.09L150.28-0.09Q150.37 0.04 150.75 0.81L150.75 0.81 146.71 0.81Q146.37 0.13 145.31-1 144.25-2.13 141.87-4.42L141.87-4.42Z" transform="translate(-4.5, 34.209999084472656)"></path></g> <!----> <!----> <!----> <!----> <!----> <!----> <!----></g></g> <g data-gra="path-slogan" fill-rule="" class="tp-slogan iconsvg-slogansvg" fill="#F74DD2" transform="translate(4.999992370605469,43.62999725341797)"><rect x="0" height="1" y="3.9750003814697266" width="49.56417655944824"></rect> <rect height="1" y="3.9750003814697266" width="49.56417655944824" x="103.98582649230957"></rect> <g transform="translate(52.56417655944824,0)"><g transform="scale(1)"><path d="M7.17-6.09L7.17-6.09L6.09-6.09Q6-7.73 3.94-7.83L3.94-7.83Q2.02-7.78 2.02-6.33L2.02-6.33Q2.02-5.39 3.05-5.25L3.05-5.25L5.48-4.69Q7.41-4.22 7.41-2.34L7.41-2.34Q7.36 0.05 4.03 0.14L4.03 0.14Q2.20 0.14 1.45-0.61L1.45-0.61Q0.52-1.31 0.56-2.77L0.56-2.77L1.69-2.77Q1.73-0.80 4.03-0.75L4.03-0.75Q6.28-0.80 6.33-2.20L6.33-2.20Q6.52-3.38 4.45-3.75L4.45-3.75L2.67-4.13Q0.84-4.64 0.84-6.19L0.84-6.19Q0.98-8.72 3.84-8.81L3.84-8.81Q7.08-8.81 7.17-6.09ZM8.86-8.58L10.03-8.58L10.03-1.03L14.39-1.03L14.39 0L8.86 0L8.86-8.58ZM22.31-4.27L22.31-4.27Q22.13-7.64 19.31-7.83L19.31-7.83Q16.45-7.69 16.31-4.27L16.31-4.27Q16.45-0.94 19.31-0.80L19.31-0.80Q22.13-0.98 22.31-4.27ZM23.48-4.27L23.48-4.27Q23.20 0 19.31 0.14L19.31 0.14Q15.38 0 15.09-4.27L15.09-4.27Q15.33-8.72 19.31-8.81L19.31-8.81Q23.20-8.67 23.48-4.27ZM31.27-3.61L28.64-3.61L28.64-4.59L32.39-4.59L32.39 0L31.64 0L31.36-1.08Q30.38 0.09 28.55 0.14L28.55 0.14Q26.81 0.14 25.88-0.75L25.88-0.75Q24.47-2.06 24.52-4.36L24.52-4.36Q24.84-8.63 28.59-8.81L28.59-8.81Q31.78-8.63 32.25-6L32.25-6L31.13-6Q30.66-7.78 28.55-7.83L28.55-7.83Q25.88-7.64 25.73-4.31L25.73-4.31Q25.73-0.75 28.59-0.75L28.59-0.75Q29.63-0.75 30.38-1.31L30.38-1.31Q31.31-2.06 31.27-3.61L31.27-3.61ZM39.84 0L39-2.48L35.53-2.48L34.64 0L33.47 0L36.70-8.58L38.02-8.58L41.11 0L39.84 0ZM37.27-7.31L35.91-3.52L38.58-3.52L37.31-7.31L37.27-7.31ZM43.55-8.58L47.86-1.64L47.86-8.58L48.98-8.58L48.98 0L47.67 0L43.31-6.94L43.27-6.94L43.27 0L42.14 0L42.14-8.58L43.55-8.58Z" transform="translate(-0.5602678571428572, 8.8125)"></path></g></g></g></g></g><defs v-gra="od"></defs></svg>